<svg width="335" height="161" viewBox="0 0 335 161" fill="none" xmlns="http://www.w3.org/2000/svg">
<path d="M62.482 60.6895L65.493 65.8465C68.1516 70.4061 72.5078 73.7707 77.6648 75.2172L96.2109 80.4057C101.72 81.9465 105.5 86.8834 105.5 92.5121V105.059C105.5 108.518 107.486 111.662 110.625 113.203C113.764 114.744 115.75 117.888 115.75 121.347V133.611C115.75 138.517 120.523 142.07 125.327 140.718C130.484 139.271 134.488 135.215 135.802 130.089L136.698 126.567C138.044 121.253 141.567 116.694 146.404 113.989L148.998 112.543C153.803 109.87 156.75 104.839 156.75 99.4301V96.8201C156.75 92.8266 155.116 88.9902 152.234 86.1602L150.984 84.9338C148.102 82.1037 144.194 80.5 140.126 80.5H126.32C122.765 80.5 119.241 79.5881 116.134 77.8586L105.084 71.6639C103.706 70.8777 102.649 69.6199 102.137 68.142C101.112 65.1232 102.489 61.8529 105.404 60.4379L107.294 59.4945C109.408 58.4568 111.874 58.2682 114.116 59.0229L121.548 61.4441C124.174 62.2932 127.057 61.3184 128.562 59.0857C130.068 56.8846 129.908 53.9602 128.178 51.9162L123.822 46.7906C120.619 43.0172 120.651 37.5143 123.918 33.8037L128.947 28.0492C131.766 24.8104 132.214 20.1879 130.068 16.5088L129.299 15.1881C128.178 15.1252 127.089 15.0938 125.968 15.0938C96.243 15.0938 71.0344 34.2439 62.482 60.6895ZM192.625 80.5C192.625 68.9281 189.55 58.048 184.169 48.583L175.969 51.8219C170.94 53.8029 168.345 59.3059 170.043 64.3371L175.456 80.2799C176.577 83.5502 179.3 86.0344 182.695 86.852L192.016 89.1475C192.401 86.3174 192.593 83.4244 192.593 80.5H192.625ZM44 80.5C44 59.1501 52.6393 38.6746 68.0172 23.5779C83.3952 8.48123 104.252 0 126 0C147.748 0 168.605 8.48123 183.983 23.5779C199.361 38.6746 208 59.1501 208 80.5C208 101.85 199.361 122.325 183.983 137.422C168.605 152.519 147.748 161 126 161C104.252 161 83.3952 152.519 68.0172 137.422C52.6393 122.325 44 101.85 44 80.5Z" fill="#3003F7"/>
<path d="M39.5948 79.5C39.5948 79.5 24.0946 87 14.5946 95C5.0946 103 0.73998 107.5 5.59481 112.5C12.8771 120 34.6394 128.797 53.5948 129C93.5948 129.429 120.048 118.748 160.095 105C193.595 93.5 238.595 74.5 238.595 74.5V96.5C238.595 96.5 198.095 111.5 174.095 118C144.589 125.991 126.595 131.691 101.095 135C76.7163 138.163 51.3735 138.641 35.0948 135C18.8161 131.359 1.69917 122.925 0.0948835 112.5C-0.905396 106 6.08642 98.9166 17.0948 91.5C26.7287 85.0094 39.5948 79.5 39.5948 79.5Z" fill="white"/>
<path d="M233.095 66.5C225.409 64.1822 219.56 64.0101 212.595 68C205.918 71.8248 201.095 84 201.095 84C201.095 84 208.93 77.1867 215.095 76.5C220.462 75.9021 228.595 79.5 228.595 79.5C228.595 79.5 218.457 78.26 214.095 82C210.377 85.1874 213.217 90.8563 209.095 93.5C204.283 96.5859 194.595 91.5 194.595 91.5C194.595 91.5 200.585 103.317 207.595 104C212.327 104.461 214.595 101.537 219.095 100C224.938 98.0045 234.095 95 234.095 95C234.095 95 229.021 98.893 228.595 102.5C228.261 105.323 231.939 106.995 230.595 109.5C229.092 112.301 222.595 111 222.595 111C222.595 111 231.43 115.86 237.095 114.5C244.364 112.755 246.902 106.975 249.595 100C252.478 92.5315 253.047 86.7232 249.595 79.5C246.057 72.0985 240.949 68.8687 233.095 66.5Z" fill="url(#paint0_linear_9_59)" stroke="#5456AD" stroke-opacity="0.5"/>
<path d="M230.595 68.5C225.401 67.3469 221.095 68 215.595 70C210.666 71.7921 208.595 75.9999 208.595 75.9999C208.595 75.9999 217.479 72.3973 224.095 73.4999C230.095 74.4999 236.095 80.9999 236.095 80.9999C236.095 80.9999 223.075 80.8306 220.588 83.9999C218.467 86.7009 218.095 87.9999 216.595 90.4999C213.44 95.7568 205.095 96.9999 205.095 96.9999C205.095 96.9999 211.988 98.0306 216.595 97.9999C219.705 97.9791 221.595 95.735 226.095 91.5C229.086 88.6849 240.095 93.9999 240.095 93.9999C240.095 93.9999 234.542 96.7385 234.595 99.4999C234.636 101.661 239.738 102.708 239.095 104.707C238.375 106.943 232.095 111 232.095 111C232.095 111 238.046 110.971 241.595 109.5C246.149 107.612 246.343 98.2501 247.453 92.7648C248.642 86.891 246.991 84.1936 244.095 79C241.127 73.6781 235.902 69.6784 230.595 68.5Z" fill="url(#paint1_linear_9_59)" stroke="#5B3737" stroke-width="0.749383"/>
<path d="M242.723 91.5666L238.813 84.2449C237.737 82.2308 237.944 79.994 239.383 78.4004C240.513 77.1586 242.003 75.5468 243.752 73.7143L223.692 66.0048C222.061 65.3782 220.834 64.0405 220.492 62.4965C220.15 60.9526 220.749 59.4503 222.05 58.5567L237.585 47.8611C241.43 45.215 246.731 44.7287 251.547 46.5796L267.152 52.5766C267.859 52.0951 268.547 51.6629 269.229 51.2471C292.375 37.394 315.76 45.6275 328.718 53.131C330.785 54.3208 331.917 56.4698 331.603 58.5335C329.547 71.4714 321.083 91.1741 293.033 95.8172C292.218 95.956 291.346 96.0729 290.436 96.1752L285.246 109.679C283.645 113.847 279.616 116.743 274.65 117.263L254.559 119.429C252.879 119.612 251.128 118.958 249.977 117.706C248.826 116.454 248.452 114.822 249.001 113.395L255.761 95.8051C252.778 95.5817 250.194 95.3418 248.242 95.1563C245.891 94.9309 243.773 93.5333 242.704 91.5593L242.723 91.5666ZM299.517 72.5475C301.528 73.3206 303.723 73.3704 305.618 72.6862C307.514 72.002 308.954 70.6397 309.623 68.899C310.292 67.1583 310.135 65.1818 309.185 63.4044C308.236 61.6269 306.573 60.1941 304.561 59.421C302.55 58.648 300.355 58.5981 298.46 59.2823C296.564 59.9666 295.124 61.3289 294.455 63.0696C293.786 64.8102 293.943 66.7867 294.893 68.5642C295.842 70.3416 297.505 71.7745 299.517 72.5475Z" fill="#0033FF"/>
<defs>
<linearGradient id="paint0_linear_9_59" x1="194.595" y1="89.7991" x2="251.975" y2="89.7991" gradientUnits="userSpaceOnUse">
<stop offset="0.375" stop-color="#493DC4"/>
<stop offset="0.72" stop-color="#181769"/>
</linearGradient>
<linearGradient id="paint1_linear_9_59" x1="204.544" y1="92.4268" x2="247.693" y2="87.2312" gradientUnits="userSpaceOnUse">
<stop offset="0.335" stop-color="#E06A6A"/>
<stop offset="0.78" stop-color="#A7288B"/>
<stop offset="1" stop-color="#BA2E2E"/>
</linearGradient>
</defs>
</svg>
